<svg xmlns="http://www.w3.org/2000/svg" viewBox="0 0 44.13 10.1"><defs><style>.cls-1{fill:#fff;}.cls-2{fill:#b48ab8;}</style></defs><title>자산 2</title><g id="레이어_2" data-name="레이어 2"><g id="레이어_1-2" data-name="레이어 1"><path class="cls-1" d="M4.52,4.16a1.63,1.63,0,0,0-1.39-.53c-1.5,0-2.5,1.08-3,3.1a3.54,3.54,0,0,0,.3,2.79,1.64,1.64,0,0,0,1.35.57h.1C3.33,10,4.43,8.78,4.83,6.74A3.24,3.24,0,0,0,4.52,4.16Zm-1,2.54A5,5,0,0,1,3,8.15a1.25,1.25,0,0,1-1,.76.59.59,0,0,1-.54-.2,2.57,2.57,0,0,1-.08-1.92c.32-1.29.81-1.94,1.51-2H3A.51.51,0,0,1,3.39,5,2.3,2.3,0,0,1,3.51,6.7Z"/><path class="cls-1" d="M10.82,4.17c0,.11-.06.24-.09.37s-.09.39-.14.61c-.12.52-.29,1.27-.38,1.79s-.15.78-.24,1.2c0,.18-.08.41-.13.63l-.14.72A.71.71,0,0,1,9,10a.57.57,0,0,1-.45-.17.41.41,0,0,1-.08-.28,2.17,2.17,0,0,1-1.29.48A1.47,1.47,0,0,1,6,9.6,2.3,2.3,0,0,1,5.7,7.72L6,6.45,6.05,6c.13-.61.26-1.25.43-1.84a.78.78,0,0,1,.77-.55.54.54,0,0,1,.43.18.49.49,0,0,1,.08.42c-.06.26-.12.52-.17.77s-.12.5-.17.74L7,7.72a1.43,1.43,0,0,0,.07,1.09.33.33,0,0,0,.3.1A1.88,1.88,0,0,0,8.8,7.59l.28-1.33c.18-.82.38-1.75.48-2.12a.77.77,0,0,1,.73-.53.55.55,0,0,1,.44.19A.44.44,0,0,1,10.82,4.17Z"/><path class="cls-1" d="M15.74,4.29a.73.73,0,0,1-.63.56,3.07,3.07,0,0,0-2,1.09c-.12.49-.22,1-.34,1.49-.16.76-.32,1.59-.41,2.06a.8.8,0,0,1-.75.57.57.57,0,0,1-.43-.18.49.49,0,0,1-.1-.41c.27-1.47.6-3.05.73-3.66l0-.11c.11-.52.22-1,.34-1.53a.77.77,0,0,1,.76-.57.52.52,0,0,1,.42.18.44.44,0,0,1,.1.41s0,0,0,.06a3.82,3.82,0,0,1,1.71-.57.58.58,0,0,1,.49.16A.54.54,0,0,1,15.74,4.29Z"/><path class="cls-1" d="M22,9.19a.7.7,0,0,1-.66.54c-.75,0-2.62,0-3.36,0a.82.82,0,0,1-.69-.21.69.69,0,0,1-.06-.62c.29-1.16.59-2.59.92-4.11l.14-.7c.27-1.28.58-2.73.79-3.54A.79.79,0,0,1,19.82,0a.64.64,0,0,1,.5.22.41.41,0,0,1,.09.37c-.1.45-.18.81-.26,1.15s-.15.59-.22.92-.09.46-.14.69l-.15.73c-.07.33-.14.66-.2,1-.24,1.13-.46,2.2-.76,3.39l0,0,0,.07h2.84a.5.5,0,0,1,.39.18A.54.54,0,0,1,22,9.19Z"/><path class="cls-1" d="M25.93,1.08a1,1,0,0,1-1,.83.71.71,0,0,1-.65-.3.77.77,0,0,1,0-.73,1.08,1.08,0,0,1,.91-.73.7.7,0,0,1,.62.2A.82.82,0,0,1,25.93,1.08Z"/><path class="cls-1" d="M25.27,3.3c0,.16-.07.3-.1.43s-.05.2-.07.3-.1.49-.16.82-.1.5-.16.83l-.72,3.8a.77.77,0,0,1-.76.62.56.56,0,0,1-.41-.18.6.6,0,0,1-.12-.46c.22-1.22.54-2.88.74-3.86.11-.52.16-.81.2-1s.09-.52.16-.84l.1-.48a.77.77,0,0,1,.75-.62.59.59,0,0,1,.48.22A.51.51,0,0,1,25.27,3.3Z"/><path class="cls-1" d="M31,.67a.69.69,0,0,1-.7.54s0,0,0,0l-.3,0a1.43,1.43,0,0,0-.36,0c-.2,0-.36.05-.5.52-.08.31-.16.68-.23,1,0,.14-.07.3-.15.63h1a.54.54,0,0,1,.45.19.53.53,0,0,1,.09.43.76.76,0,0,1-.71.59H28.46l0,.21c-.2,1-.37,1.84-.55,2.79l-.07.35c0,.23-.1.49-.15.76s-.12.58-.17.84a.79.79,0,0,1-.76.59.53.53,0,0,1-.41-.17.55.55,0,0,1-.13-.44c.12-.62.26-1.34.38-1.9l0-.11c.17-.91.34-1.85.54-2.77l0-.14h-.64a.5.5,0,0,1-.4-.17.52.52,0,0,1-.1-.46.75.75,0,0,1,.74-.59h.66c.05-.26.11-.54.21-.92s.18-.84.27-1.14A1.7,1.7,0,0,1,29.73,0a5,5,0,0,1,.83.05.53.53,0,0,1,.37.23A.49.49,0,0,1,31,.67Z"/><path class="cls-1" d="M34.48,4.22a1.63,1.63,0,0,0-1.25-.58C30.91,3.64,30.17,6,30,6.69a3.13,3.13,0,0,0,.26,2.7,2,2,0,0,0,1.68.68,3.27,3.27,0,0,0,1.85-.53.63.63,0,0,0,.3-.76.47.47,0,0,0-.28-.27.62.62,0,0,0-.49,0,2.6,2.6,0,0,1-1.12.34,1,1,0,0,1-.83-.3,1.77,1.77,0,0,1-.15-1.35c.56,0,2.34-.08,2.84-.17a.87.87,0,0,0,.79-.82A2.37,2.37,0,0,0,34.48,4.22Zm-1.57.66H33a.63.63,0,0,1,.48.23A1.09,1.09,0,0,1,33.6,6c-1,.09-1.64.1-2.07.1A1.55,1.55,0,0,1,32.91,4.88Z"/><path class="cls-2" d="M39.58,2.34a.82.82,0,0,1,.16.69,1.07,1.07,0,0,1-1.05.84A.78.78,0,0,1,38,3.56a.75.75,0,0,1,0-.73,1.15,1.15,0,0,1,1-.72A.76.76,0,0,1,39.58,2.34Z"/><path class="cls-2" d="M43.85,5.69c-.18.25-.36.47-.53.68l-.45.57c-.54.76-1.32,1.72-1.9,2.43l0,.07a.73.73,0,0,1-.62.35.49.49,0,0,1-.45-.28A.62.62,0,0,1,40,8.82c.11-.16.24-.31.36-.46l.15-.18c.72-.88,1.3-1.68,1.9-2.52l.37-.5a7.6,7.6,0,0,1-.43-.93l-.18-.41c-.08-.16-.18-.4-.27-.64l-.17-.42a6.86,6.86,0,0,1-.35-.93.54.54,0,0,1,.07-.51A.8.8,0,0,1,42.06,1a.52.52,0,0,1,.51.32c.31.79.67,1.72,1,2.57a7.07,7.07,0,0,0,.41.76C44.27,5,44.09,5.36,43.85,5.69Z"/><path class="cls-2" d="M38.66,6.64a.75.75,0,0,1,.16.68,1,1,0,0,1-1,.83.72.72,0,0,1-.73-1h0A1.16,1.16,0,0,1,38,6.39.76.76,0,0,1,38.66,6.64Z"/></g></g></svg>